<?xml version="1.0" encoding="UTF-8" standalone="no"?><!-- Generator: Gravit.io --><svg xmlns="http://www.w3.org/2000/svg" xmlns:xlink="http://www.w3.org/1999/xlink" style="isolation:isolate" viewBox="0 0 134.453 175.452" width="134.453pt" height="175.452pt"><defs><clipPath id="_clipPath_ZhY1VustPd4kHQnWOwvzJSPM3HJKRsOo"><rect width="134.453" height="175.452"/></clipPath></defs><g clip-path="url(#_clipPath_ZhY1VustPd4kHQnWOwvzJSPM3HJKRsOo)"><g><g/><g/><g/><g><g><path d=" M 67.151 40.511 C 60.529 40.943 55.017 46.065 54.097 52.637 C 54.03 53.11 53.989 53.579 53.97 54.043 C 53.854 56.89 52.769 59.611 50.754 61.625 L 43.646 68.733 C 41.631 70.748 38.911 71.832 36.064 71.949 C 35.6 71.967 35.132 72.01 34.659 72.076 C 28.087 72.993 22.967 78.505 22.532 85.126 C 21.97 93.688 29.033 100.753 37.596 100.192 C 44.217 99.76 49.73 94.638 50.649 88.067 C 50.715 87.594 50.757 87.125 50.777 86.66 C 50.892 83.814 51.978 81.093 53.992 79.078 L 61.099 71.97 C 63.114 69.956 65.836 68.871 68.682 68.755 C 69.146 68.736 69.615 68.694 70.087 68.628 C 76.658 67.709 81.78 62.198 82.214 55.576 C 82.775 47.015 75.712 39.95 67.151 40.511 Z " fill="rgb(255,255,255)"/><path d=" M 108.605 47.826 C 101.984 48.26 96.472 53.38 95.553 59.952 C 95.485 60.426 95.444 60.894 95.425 61.359 C 95.309 64.205 94.224 66.925 92.208 68.941 L 85.101 76.049 C 83.087 78.063 80.366 79.148 77.519 79.264 C 77.056 79.284 76.587 79.325 76.114 79.391 C 69.543 80.31 64.422 85.82 63.987 92.442 C 63.425 101.005 70.488 108.068 79.051 107.508 C 85.673 107.075 91.184 101.955 92.104 95.383 C 92.17 94.909 92.211 94.44 92.231 93.976 C 92.347 91.129 93.432 88.408 95.447 86.394 L 102.555 79.287 C 104.57 77.272 107.291 76.188 110.136 76.071 C 110.601 76.052 111.069 76.01 111.542 75.943 C 118.113 75.025 123.235 69.513 123.669 62.893 C 124.23 54.331 117.167 47.267 108.605 47.826 Z " fill="rgb(255,255,255)"/><path d=" M 56.42 0.031 C 49.799 0.464 44.287 5.585 43.368 12.157 C 43.301 12.63 43.259 13.099 43.241 13.564 C 43.124 16.41 42.04 19.13 40.023 21.145 L 32.916 28.253 C 30.902 30.268 28.181 31.352 25.334 31.469 C 24.871 31.488 24.402 31.53 23.93 31.596 C 17.358 32.514 12.237 38.025 11.803 44.647 C 11.24 53.209 18.303 60.273 26.866 59.712 C 33.488 59.28 39 54.16 39.919 47.587 C 39.985 47.114 40.027 46.645 40.046 46.181 C 40.162 43.334 41.247 40.613 43.262 38.599 L 50.37 31.491 C 52.385 29.476 55.106 28.392 57.952 28.276 C 58.416 28.256 58.884 28.215 59.357 28.148 C 65.928 27.23 71.051 21.718 71.485 15.097 C 72.046 6.535 64.983 -0.529 56.42 0.031 Z " fill="rgb(255,255,255)"/><path d=" M 97.888 10.723 C 90.093 10.723 83.773 17.042 83.773 24.838 C 83.773 32.632 90.093 38.952 97.888 38.952 C 105.683 38.952 112.002 32.632 112.002 24.838 C 112.002 17.042 105.683 10.723 97.888 10.723 Z " fill="rgb(255,255,255)"/></g></g></g><g><path d=" M 36.277 132.616 L 36.277 132.616 Q 36.277 133.696 35.02 133.696 L 35.02 133.696 L 9.342 133.696 L 9.342 133.696 Q 8.905 133.696 8.905 134.088 L 8.905 134.088 L 8.905 146.797 L 8.905 146.797 Q 8.905 147.238 9.342 147.238 L 9.342 147.238 L 26.497 147.238 L 26.497 147.238 Q 27.699 147.238 27.699 148.318 L 27.699 148.318 L 27.699 152.979 L 27.699 152.979 Q 27.699 154.108 26.497 154.108 L 26.497 154.108 L 9.342 154.108 L 9.342 154.108 Q 8.905 154.108 8.905 154.5 L 8.905 154.5 L 8.905 167.65 L 8.905 167.65 Q 8.905 168.043 9.342 168.043 L 9.342 168.043 L 35.02 168.043 L 35.02 168.043 Q 36.277 168.043 36.277 169.122 L 36.277 169.122 L 36.277 173.833 L 36.277 173.833 Q 36.277 174.912 35.02 174.912 L 35.02 174.912 L 1.257 174.912 L 1.257 174.912 Q 0 174.912 0 173.833 L 0 173.833 L 0 127.906 L 0 127.906 Q 0 126.826 1.257 126.826 L 1.257 126.826 L 35.02 126.826 L 35.02 126.826 Q 36.277 126.826 36.277 127.906 L 36.277 127.906 L 36.277 132.616 Z  M 45.728 174.912 L 45.728 174.912 Q 44.526 174.912 44.526 173.833 L 44.526 173.833 L 44.526 127.906 L 44.526 127.906 Q 44.526 126.826 45.728 126.826 L 45.728 126.826 L 52.175 126.826 L 52.175 126.826 Q 53.377 126.826 53.377 127.906 L 53.377 127.906 L 53.377 173.833 L 53.377 173.833 Q 53.377 174.912 52.175 174.912 L 52.175 174.912 L 45.728 174.912 Z  M 64.358 174.912 L 64.358 174.912 Q 63.102 174.912 63.102 173.833 L 63.102 173.833 L 63.102 127.906 L 63.102 127.906 Q 63.102 126.826 64.358 126.826 L 64.358 126.826 L 70.751 126.826 L 70.751 126.826 Q 72.007 126.826 72.007 127.906 L 72.007 127.906 L 72.007 173.833 L 72.007 173.833 Q 72.007 174.912 70.751 174.912 L 70.751 174.912 L 64.358 174.912 Z  M 86.649 135.413 L 86.649 135.413 Q 84.136 135.413 82.551 133.99 L 82.551 133.99 L 82.551 133.99 Q 80.912 132.616 80.912 130.408 L 80.912 130.408 L 80.912 130.408 Q 80.912 128.2 82.551 126.826 L 82.551 126.826 L 82.551 126.826 Q 84.136 125.452 86.649 125.452 L 86.649 125.452 L 86.649 125.452 Q 89.217 125.452 90.746 126.826 L 90.746 126.826 L 90.746 126.826 Q 92.331 128.2 92.331 130.408 L 92.331 130.408 L 92.331 130.408 Q 92.331 132.616 90.746 133.99 L 90.746 133.99 L 90.746 133.99 Q 89.217 135.413 86.649 135.413 L 86.649 135.413 Z  M 83.48 174.912 L 83.48 174.912 Q 82.224 174.912 82.224 173.833 L 82.224 173.833 L 82.224 140.908 L 82.224 140.908 Q 82.224 139.829 83.48 139.829 L 83.48 139.829 L 89.872 139.829 L 89.872 139.829 Q 91.129 139.829 91.129 140.908 L 91.129 140.908 L 91.129 173.833 L 91.129 173.833 Q 91.129 174.912 89.872 174.912 L 89.872 174.912 L 83.48 174.912 Z  M 118.664 168.73 L 118.664 168.73 Q 121.451 168.681 123.581 167.65 L 123.581 167.65 L 123.581 167.65 Q 125.657 166.669 126.969 164.952 L 126.969 164.952 L 126.969 164.952 Q 127.351 164.412 127.952 164.412 L 127.952 164.412 L 127.952 164.412 Q 128.334 164.412 128.662 164.608 L 128.662 164.608 L 132.323 167.209 L 132.323 167.209 Q 132.869 167.699 132.869 168.092 L 132.869 168.092 L 132.869 168.092 Q 132.869 168.386 132.65 168.73 L 132.65 168.73 L 132.65 168.73 Q 130.41 171.87 126.586 173.686 L 126.586 173.686 L 126.586 173.686 Q 122.762 175.452 117.79 175.452 L 117.79 175.452 L 117.79 175.452 Q 111.78 175.452 107.683 172.901 L 107.683 172.901 L 107.683 172.901 Q 103.585 170.3 101.728 165.688 L 101.728 165.688 L 101.728 165.688 Q 100.198 161.909 100.198 157.199 L 100.198 157.199 L 100.198 157.199 Q 100.198 152.439 101.072 149.888 L 101.072 149.888 L 101.072 149.888 Q 102.493 145.03 106.809 142.135 L 106.809 142.135 L 106.809 142.135 Q 111.07 139.24 117.189 139.24 L 117.189 139.24 L 117.189 139.24 Q 131.503 139.24 133.962 153.323 L 133.962 153.323 L 133.962 153.323 Q 134.344 155.629 134.453 158.965 L 134.453 158.965 L 134.453 158.965 Q 134.453 160.094 133.251 160.094 L 133.251 160.094 L 109.54 160.094 L 109.54 160.094 Q 109.103 160.094 109.103 160.486 L 109.103 160.486 L 109.103 160.486 Q 109.103 162.351 109.54 163.529 L 109.54 163.529 L 109.54 163.529 Q 110.36 165.982 112.764 167.356 L 112.764 167.356 L 112.764 167.356 Q 115.113 168.73 118.664 168.73 L 118.664 168.73 Z  M 117.135 146.11 L 117.135 146.11 Q 114.184 146.11 112.327 147.385 L 112.327 147.385 L 112.327 147.385 Q 110.469 148.661 109.759 150.918 L 109.759 150.918 L 109.759 150.918 Q 109.213 152.292 109.158 153.813 L 109.158 153.813 L 109.158 153.813 Q 109.103 154.255 109.54 154.255 L 109.54 154.255 L 124.892 154.255 L 124.892 154.255 Q 125.384 154.255 125.384 153.813 L 125.384 153.813 L 125.384 153.813 Q 125.056 151.752 124.892 151.36 L 124.892 151.36 L 124.892 151.36 Q 124.237 148.956 122.215 147.533 L 122.215 147.533 L 122.215 147.533 Q 120.194 146.11 117.135 146.11 L 117.135 146.11 Z " fill="rgb(255,255,255)"/></g></g></svg>